<svg xmlns="http://www.w3.org/2000/svg" id="icon_notice" width="50" height="50" viewBox="0 0 50 50">
    <defs>
        <style>
            .cls-2{fill:#333}
        </style>
    </defs>
    <path id="사각형_8143" fill="none" d="M0 0H50V50H0z"/>
    <g id="그룹_6846" transform="translate(11685.857 -5779)">
        <g id="그룹_6844" transform="translate(-11673.857 5787)">
            <g id="그룹_6832" transform="translate(0 0)">
                <g id="그룹_6829" transform="translate(0 2.747)">
                    <path id="패스_1882" d="M629.652 303.618h-23.5a1.221 1.221 0 0 1-1.042-.6 1.373 1.373 0 0 1-.074-1.256l2.153-4.837v-9.912c0-6.345 4.806-11.508 10.712-11.508s10.712 5.163 10.712 11.508v9.912l2.153 4.837a1.374 1.374 0 0 1-.074 1.256 1.222 1.222 0 0 1-1.04.6zm-21.552-2.61h19.61l-1.443-3.24a1.373 1.373 0 0 1-.118-.556v-10.2c0-4.907-3.7-8.9-8.244-8.9s-8.245 3.992-8.245 8.9v10.2a1.353 1.353 0 0 1-.118.556z" class="cls-2" transform="translate(-604.92 -275.5)"/>
                </g>
                <g id="그룹_6830" transform="translate(11.857)">
                    <path id="패스_1883" d="M616.324 276.53a1.125 1.125 0 0 1-1.124-1.13v-1.953a1.125 1.125 0 1 1 2.25 0v1.953a1.125 1.125 0 0 1-1.126 1.13z" class="cls-2" transform="translate(-615.199 -272.326)"/>
                </g>
                <g id="그룹_6831" transform="translate(9.887 30.172)">
                    <path id="패스_1884" d="M619.113 298.406a3.1 3.1 0 1 1-6.19 0" class="cls-2" transform="translate(-612.923 -298.406)"/>
                </g>
            </g>
        </g>
    </g>
</svg>
