<svg xmlns="http://www.w3.org/2000/svg" id="icon_FAQ" width="50" height="50" viewBox="0 0 50 50">
    <defs>
        <style>
            .cls-1{fill:#333}
        </style>
    </defs>
    <g id="그룹_6847" transform="translate(11513.206 -5778.136)">
        <g id="그룹_6843" transform="translate(-11503.206 5789.136)">
            <g id="그룹_6828" transform="translate(0 0)">
                <g id="그룹_6820" transform="translate(0)">
                    <path id="패스_1879" d="M780.26 302.217a1.317 1.317 0 0 1-.54-.115 1.092 1.092 0 0 1-.673-1l.076-3.99h-2.34a1.161 1.161 0 0 1-1.213-1.1v-20.45a1.161 1.161 0 0 1 1.213-1.1h27.574a1.161 1.161 0 0 1 1.213 1.1v20.446a1.161 1.161 0 0 1-1.213 1.1h-16.506l-6.842 4.874a1.294 1.294 0 0 1-.749.235zm-2.26-7.309h2.361a1.282 1.282 0 0 1 .865.329 1.048 1.048 0 0 1 .347.79l-.053 2.8 5.165-3.68a1.3 1.3 0 0 1 .749-.235h15.713v-18.25H778z" class="cls-1" transform="translate(-775.571 -274.462)"/>
                </g>
                <g id="그룹_6827" transform="translate(9.447 9.969)">
                    <g id="그룹_6823">
                        <g id="그룹_6822">
                            <g id="그룹_6821">
                                <path id="패스_1880" d="M785.222 284.431a1.591 1.591 0 0 1 1.6 1.579 1.6 1.6 0 1 1-1.6-1.579z" class="cls-1" transform="translate(-783.623 -284.431)"/>
                            </g>
                        </g>
                    </g>
                    <g id="그룹_6826" transform="translate(7.905)">
                        <g id="그룹_6825">
                            <g id="그룹_6824">
                                <path id="패스_1881" d="M793.127 284.431a1.591 1.591 0 0 1 1.6 1.579 1.6 1.6 0 1 1-1.6-1.579z" class="cls-1" transform="translate(-791.528 -284.431)"/>
                            </g>
                        </g>
                    </g>
                </g>
            </g>
        </g>
    </g>
    <path id="사각형_8145" fill="none" d="M0 0H50V50H0z"/>
</svg>
